<svg width="16" height="16" viewBox="0 0 16 16" fill="none" xmlns="http://www.w3.org/2000/svg">
<path d="M8.36196 10.6203L13.672 5.04729C13.7606 4.9543 13.8101 4.83076 13.8101 4.70229C13.8101 4.57382 13.7606 4.45028 13.672 4.35729L13.666 4.35129C13.623 4.30606 13.5713 4.27004 13.5139 4.24542C13.4566 4.22081 13.3949 4.20812 13.3325 4.20812C13.2701 4.20812 13.2083 4.22081 13.151 4.24542C13.0937 4.27004 13.0419 4.30606 12.999 4.35129L7.99896 9.59929L3.00096 4.35129C2.95799 4.30605 2.90626 4.27003 2.84893 4.24542C2.7916 4.22081 2.72986 4.20811 2.66746 4.20811C2.60507 4.20811 2.54333 4.22081 2.486 4.24542C2.42866 4.27003 2.37694 4.30605 2.33396 4.35129L2.32796 4.35729C2.23932 4.45028 2.18987 4.57382 2.18987 4.70229C2.18987 4.83076 2.23932 4.9543 2.32796 5.04729L7.63796 10.6203C7.68466 10.6693 7.74082 10.7083 7.80305 10.735C7.86528 10.7616 7.93227 10.7754 7.99996 10.7754C8.06766 10.7754 8.13465 10.7616 8.19688 10.735C8.2591 10.7083 8.31527 10.6693 8.36196 10.6203Z" fill="#4F4F4F"/>
</svg>
