<svg width="129" height="31" viewBox="0 0 129 31" fill="none" xmlns="http://www.w3.org/2000/svg">
<g opacity="0.1">
<mask id="mask0_102_323" style="mask-type:luminance" maskUnits="userSpaceOnUse" x="0" y="0" width="130" height="33">
<path d="M129 0H0V32.318H129V0Z" fill="white"/>
</mask>
<g mask="url(#mask0_102_323)">
<path d="M34.8737 -1.84082H0V3.54017H33.1327V3.54429C34.0909 3.54429 34.8613 4.32228 34.8613 5.27955V23.3588L34.8541 23.3711C34.8461 24.3284 34.0726 25.097 33.1226 25.097H7.08655C6.13252 25.097 5.35493 24.3222 5.35493 23.3588V16.0518C5.35493 15.0925 6.13252 14.3166 7.08655 14.3166H29.49V8.93766H5.34159C2.39022 8.93766 0 11.3355 0 14.2991V25.1105C0 28.0729 2.39022 30.4771 5.34159 30.4771H34.8737C37.827 30.4771 40.2153 28.0729 40.2153 25.1105V3.52472C40.2153 0.561148 37.827 -1.84082 34.8737 -1.84082Z" fill="black"/>
<path d="M60.143 0.00976564L64.3317 12.5967C64.8332 14.131 65.1821 14.4876 66.058 14.4876H66.9127V16.702H57.764V14.4876H58.512C59.2658 14.4876 59.8959 14.3855 59.8959 14.1094C59.8959 13.8559 59.867 13.5797 59.7697 13.2036L59.2434 11.389H54.1275L53.829 12.3957C53.5509 13.2768 53.4526 13.6539 53.4526 14.0063C53.4526 14.4134 54.3285 14.4886 55.0086 14.4886H55.731V16.703H48.3653V14.4876H49.2157C50.0929 14.4876 50.4427 14.131 50.9474 12.5967L55.1329 0.00976564H60.143ZM54.8486 9.1756H58.4893L56.6838 3.75854H56.6368L54.8486 9.1756Z" fill="black"/>
<path d="M68.3643 3.10627C68.3643 2.39937 68.1889 2.02429 67.4616 2.02429H66.3107V0.00976564H72.5272V6.27796C73.4516 5.21868 74.6312 4.54065 75.7576 4.54065C79.5172 4.54065 80.9176 7.48875 80.9176 10.8088C80.9176 14.131 79.5172 17.074 75.7576 17.074C74.1799 17.074 72.7764 16.5237 71.8964 15.1378L71.1711 16.702H68.3633L68.3643 3.10627ZM72.5272 10.8088C72.5272 13.3767 73.1017 14.9142 74.505 14.9142C75.9114 14.9142 76.4859 13.3767 76.4859 10.8088C76.4859 8.24098 75.9114 6.70871 74.505 6.70871C73.1017 6.70871 72.5272 8.24098 72.5272 10.8088Z" fill="black"/>
<path d="M82.4269 3.10627C82.4269 2.39937 82.2484 2.02429 81.5263 2.02429H80.3722V0.00976564H86.5898V6.27796C87.516 5.21868 88.6948 4.54065 89.8223 4.54065C93.5798 4.54065 94.9854 7.48875 94.9854 10.8088C94.9854 14.131 93.5798 17.074 89.8223 17.074C88.2405 17.074 86.84 16.5237 85.959 15.1378L85.2335 16.702H82.4269V3.10627ZM86.5887 10.8088C86.5887 13.3767 87.1664 14.9142 88.5666 14.9142C89.9719 14.9142 90.5475 13.3767 90.5475 10.8088C90.5475 8.24098 89.9719 6.70871 88.5666 6.70871C87.1674 6.70871 86.5887 8.24098 86.5887 10.8088Z" fill="black"/>
<path d="M109.121 10.8092C109.121 14.8372 106.388 17.0743 102.654 17.0743C98.917 17.0743 96.1843 14.8372 96.1843 10.8092C96.1843 6.78017 98.917 4.54102 102.654 4.54102C106.388 4.54102 109.121 6.78017 109.121 10.8092ZM100.623 10.8092C100.623 13.7779 101.148 15.0629 102.654 15.0629C104.158 15.0629 104.684 13.7779 104.684 10.8092C104.684 7.83844 104.158 6.55553 102.654 6.55553C101.148 6.55553 100.623 7.83844 100.623 10.8092Z" fill="black"/>
<path d="M126.992 11.0127V12.9778C126.992 14.1308 126.743 14.815 125.789 14.815C125.212 14.815 124.938 14.3853 124.938 13.8557V6.93109H128.018V4.92068H124.938V0.237305H122.456C122.253 2.32602 121.604 4.92068 119.098 4.92068H115.188V0.237305H112.708C112.503 2.32602 111.854 4.92068 109.348 4.92068V6.93109H111.029V13.2529C111.029 15.8208 112.456 17.0748 115.036 17.0748C118.047 17.0748 119.246 15.7198 119.246 13.2529V11.0117H117.247V12.9767C117.247 14.1298 116.993 14.814 116.04 14.814C115.463 14.814 115.189 14.3843 115.189 13.8547V6.93005H120.781V13.2518C120.781 15.8197 122.206 17.0738 124.787 17.0738C127.797 17.0738 129 15.7187 129 13.2518V11.0106H126.992" fill="black"/>
</g>
</g>
</svg>
