<svg width="12" height="17" viewBox="0 0 12 17" fill="none" xmlns="http://www.w3.org/2000/svg">
<path d="M6 2C7.654 2 9 3.346 9 5C9 6.654 7.654 8 6 8C4.346 8 3 6.654 3 5C3 3.346 4.346 2 6 2ZM6 0C3.236 0 1 2.238 1 5C1 7.762 3.236 10 6 10C8.764 10 11 7.762 11 5C11 2.238 8.764 0 6 0ZM6 13C8.021 13 9.301 13.771 9.783 14.445C9.1 14.705 7.814 15 6 15C4.016 15 2.794 14.695 2.182 14.458C2.641 13.743 3.959 13 6 13ZM6 11C2.25 11 0 13 0 15C0 16 2.25 17 6 17C9.518 17 12 16 12 15C12 13 9.646 11 6 11Z" fill="#ACD893"/>
</svg>
