<svg width="129" height="30" viewBox="0 0 129 30" fill="none" xmlns="http://www.w3.org/2000/svg">
<g opacity="0.5" clip-path="url(#clip0_102_358)">
<mask id="mask0_102_358" style="mask-type:luminance" maskUnits="userSpaceOnUse" x="0" y="0" width="129" height="30">
<path d="M129 0H0V29.9487H129V0Z" fill="white"/>
</mask>
<g mask="url(#mask0_102_358)">
<path d="M120.519 17.1774C120.519 17.1774 119.603 20.0137 118.684 22.8464L117.958 24.4032L116.718 28.2318C116.718 28.2318 115.653 28.1957 113.199 28.128C112.429 28.1085 111.636 28.2274 110.849 28.4054L109.155 29.1344C108.049 29.4513 106.997 29.7623 106.074 29.8441C104.499 29.9833 103.085 29.9762 101.465 29.8644L100.162 29.4408C96.6979 29.108 94.6777 28.4741 94.6777 28.4741L95.8924 24.7229L96.1927 23.0974L98.0312 17.4214L98.8935 15.4577L99.5792 13.3409L99.8653 11.7533L101.705 6.08078L102.253 5.08578L103.663 0.731459C103.663 0.731459 105.685 1.39803 109.147 1.74849L110.611 1.61025C112.242 1.73 113.66 1.73704 115.244 1.58735C116.163 1.50018 117.217 1.1594 118.319 0.820392L119.225 0.78341C120.21 0.511321 121.215 0.307036 122.186 0.349303C124.626 0.453208 125.706 0.488426 125.706 0.488426L124.455 4.34698L124.195 5.83424L122.358 11.5014L121.64 13.0353L120.829 15.537L120.519 17.1774Z" fill="black"/>
<path d="M106.967 12.8602C108.593 12.9737 109.998 12.9799 111.577 12.8399C112.509 12.7563 113.565 12.4181 114.681 12.0844L116.514 6.41193C115.408 6.743 114.335 7.08554 113.413 7.16744C111.832 7.30831 110.432 7.29688 108.802 7.18503L106.967 12.8602Z" fill="#C8C8C8"/>
<path d="M103.291 24.2044C104.923 24.3188 106.329 24.3233 107.911 24.1832C108.837 24.1005 109.895 23.7588 111.007 23.4268L112.842 17.7596C111.73 18.0916 110.673 18.4297 109.747 18.5116C108.17 18.6525 106.758 18.642 105.135 18.5301L103.291 24.2044Z" fill="#C8C8C8"/>
<path d="M118.319 0.821173L116.514 6.41265C117.851 6.01288 119.255 5.68355 120.599 5.72493C123.106 5.80068 124.195 5.83501 124.195 5.83501L126.027 0.193346C126.027 0.193346 124.973 0.169568 122.43 0.0524552C121.085 -0.0109441 119.657 0.395868 118.319 0.821173Z" fill="#C8C8C8"/>
<path d="M96.193 23.0978C96.193 23.0978 98.259 23.7379 101.794 24.0778C102.32 24.1289 102.812 24.1712 103.291 24.2046L101.465 29.8649C100.982 29.8323 100.484 29.7882 99.9567 29.738C96.4216 29.3982 94.3596 28.7518 94.3596 28.7518L96.193 23.0978Z" fill="#C8C8C8"/>
<path d="M108.802 7.18474L110.611 1.60999C110.137 1.57565 109.644 1.53162 109.128 1.47879C105.591 1.12217 103.53 0.442383 103.53 0.442383L101.705 6.08054C101.705 6.08054 103.763 6.72156 107.295 7.06233C107.824 7.11254 108.322 7.14951 108.802 7.18474Z" fill="#C8C8C8"/>
<path d="M98.0312 17.422L99.8654 11.7539C99.8654 11.7539 101.926 12.3958 105.462 12.734C105.99 12.7859 106.484 12.8282 106.967 12.8608L105.135 18.5306C104.653 18.4971 104.158 18.4584 103.629 18.4073C100.095 18.0674 98.0312 17.422 98.0312 17.422Z" fill="#C8C8C8"/>
<path d="M118.684 22.8463C118.684 22.8463 117.599 22.8172 115.097 22.7389C113.75 22.6975 112.344 23.0251 111.007 23.4266L109.155 29.1343C110.493 28.7346 111.914 28.3735 113.26 28.3981C115.796 28.4466 116.85 28.502 116.85 28.502L118.684 22.8463Z" fill="#C8C8C8"/>
<path d="M112.842 17.7597L114.681 12.0845C116.019 11.6856 117.421 11.3607 118.767 11.3951C121.271 11.462 122.359 11.5016 122.359 11.5016L120.519 17.1776C120.519 17.1776 119.477 17.1336 116.932 17.0676C115.585 17.0332 114.182 17.359 112.842 17.7597Z" fill="#C8C8C8"/>
<path d="M22.3017 9.89262L22.2158 4.88847L18.7799 9.89262H22.3017ZM21.1402 0.46283H26.0957L27.3111 15.3335H22.3877L22.354 12.9129H16.7155L15.0498 15.3335H10.0279L21.1402 0.46283Z" fill="black"/>
<path d="M35.4694 7.59345C35.0133 7.44024 34.6092 7.35394 34.2318 7.35394C33.1508 7.35394 32.1735 8.22481 31.805 9.53242C31.4709 10.7951 32.0194 11.6008 33.1977 11.6008C33.5416 11.6008 33.6869 11.5366 34.2308 11.4062L35.4694 7.59345ZM36.9748 15.3264H30.8933C27.9977 15.3264 26.8354 12.9736 27.8772 9.4884C28.9201 5.98204 31.5401 3.62922 34.3814 3.62922C35.1629 3.62922 35.8417 3.76042 36.5992 4.10737L37.7927 0.470703H41.7974L36.9748 15.3264Z" fill="black"/>
<path d="M40.8716 3.82428H45.166L44.7282 9.94584L48.8624 3.82428H52.5012L44.3757 15.326H41.0824L40.8716 3.82428Z" fill="black"/>
<path d="M55.3062 10.6387C54.2899 11.2586 53.0195 11.152 52.6173 12.4253C52.4248 13.0267 52.6571 13.4696 53.1816 13.4696C53.6919 13.4696 54.0686 13.2213 54.6524 12.8321C54.6612 12.6199 54.718 12.3901 54.865 11.9657L55.3062 10.6387ZM57.8261 15.4782C55.7794 15.6305 54.8642 15.391 54.5735 14.411C53.3712 15.1515 52.5234 15.5213 51.2724 15.5213C48.9996 15.5213 48.4715 14.1926 48.9501 12.7115C49.1681 12.015 49.6756 11.3176 50.3508 10.7505C51.8206 9.53183 54.6277 9.35749 56.0098 8.4197C56.3181 7.37536 55.9806 6.77747 54.8676 7.00467C53.4396 7.29613 52.7626 7.69236 50.6529 8.96475L51.7401 5.58875C53.5998 4.44226 55.154 3.76952 57.0056 3.62865C59.3483 3.44988 61.2214 4.71788 60.2856 7.61401L59.2224 10.8817C58.8521 12.0361 58.8202 12.3848 59.9551 12.4059L57.8261 15.4782Z" fill="black"/>
<path d="M63.0934 3.82433H67.0991L66.6011 5.32743C68.0903 4.107 69.1473 3.62885 70.418 3.62885C72.6515 3.62885 73.4038 5.1751 72.578 7.72338L70.121 15.326H66.1164L68.1577 9.031C68.5281 7.87661 68.3359 7.35356 67.5472 7.35356C66.9113 7.35356 66.2616 7.74541 65.5369 8.59515L63.3627 15.326H59.3578L63.0934 3.82433Z" fill="black"/>
<path d="M79.7919 14.8019C78.2885 15.347 77.4157 15.5213 76.3187 15.5213C72.9095 15.5213 71.3254 13.1034 72.4531 9.64015C73.3878 6.76517 76.1028 3.62866 80.0499 3.62866C81.1281 3.62866 82.2375 3.82415 83.1472 4.21687L81.9096 8.02876C81.175 7.57087 80.4317 7.35338 79.5847 7.35338C78.16 7.35338 76.8948 8.26825 76.4596 9.59612C76.046 10.9037 76.7839 11.7966 78.2663 11.7966C79.0158 11.7966 79.7369 11.6003 80.988 11.0781L79.7919 14.8019Z" fill="black"/>
<path d="M89.1065 8.50866C89.5683 7.06366 89.3183 6.32312 88.3359 6.32312C87.4525 6.32312 86.7099 6.9721 86.2925 8.50866H89.1065ZM91.1045 13.6202C89.4574 15.1145 87.8802 15.5213 85.9357 15.5213C82.4315 15.5213 81.0076 12.8867 82.0938 9.53184C83.2004 6.15582 86.259 3.62866 89.2616 3.62866C92.3617 3.62866 93.7626 6.21482 92.1829 10.1984H85.7344C85.3828 11.3739 86.0526 12.4852 87.5923 12.4852C88.6715 12.4852 90.3932 12.0872 91.9045 11.1371L91.1045 13.6202Z" fill="black"/>
<path d="M51.552 21.8459C52.7826 21.8459 53.4712 21.255 53.7821 20.304C54.0941 19.3345 53.7821 18.8106 52.5197 18.8106H51.568L50.5837 21.8459H51.552ZM48.0336 16.3574H54.398C57.9615 16.3574 58.6447 18.2673 58.0146 20.2662C57.3856 22.1937 55.478 24.3387 51.5902 24.3387H49.7793L48.343 28.7599H43.9988L48.0336 16.3574Z" fill="black"/>
<path d="M10.2369 24.2188L10.166 20.0459L7.29982 24.2188H10.2369ZM9.26942 16.3555H13.4018L14.4162 28.757H10.3096L10.2812 26.7388H5.57829L4.18816 28.757H0L9.26942 16.3555Z" fill="black"/>
<path d="M61.0033 24.8417C60.1571 25.3595 59.0957 25.2697 58.7608 26.3326C58.6014 26.8354 58.7936 27.2033 59.2322 27.2033C59.6576 27.2033 59.9721 26.9974 60.4584 26.6723C60.4654 26.4954 60.5134 26.3026 60.6357 25.9495L61.0033 24.8417ZM63.1058 28.879C61.3994 29.0049 60.6346 28.8059 60.3919 27.9887C59.3898 28.6062 58.6837 28.9144 57.6393 28.9144C55.744 28.9144 55.3036 27.8064 55.7025 26.5721C55.8841 25.99 56.3075 25.4079 56.8709 24.936C58.0972 23.9189 60.4381 23.7736 61.5908 22.9917C61.8478 22.12 61.5668 21.6207 60.6383 21.8109C59.4476 22.0539 58.8823 22.3832 57.1228 23.4461L58.0299 20.6301C59.5805 19.6747 60.8767 19.1129 62.4218 18.9949C64.3754 18.847 65.9384 19.9045 65.1579 22.3199L64.2709 25.0443C63.9626 26.0077 63.9352 26.2982 64.8824 26.3174L63.1058 28.879Z" fill="black"/>
<path d="M23.8521 25.2261C23.5624 26.1162 23.9026 26.4783 24.7975 26.17L23.0963 28.75C22.5452 28.8785 22.1261 28.9139 21.5963 28.9139C20.3107 28.9139 19.8615 28.4595 19.9864 27.2611C18.8364 28.3677 17.7085 28.9139 16.5514 28.9139C15.1373 28.9139 13.9315 28.0783 14.8379 25.2798L16.8305 19.1582H20.1716L18.4864 24.3534C18.1435 25.3696 18.3207 25.8072 19.0119 25.8072C19.5098 25.8072 19.9856 25.5166 20.6385 24.8254L22.485 19.1582H25.8269L23.8521 25.2261Z" fill="black"/>
<path d="M31.1855 27.8436C30.0833 28.569 29.0423 28.9143 27.9169 28.9143C26.905 28.9143 26.0015 28.5877 25.608 27.8972C25.3077 27.3513 25.3493 26.6628 25.7825 25.3542L27.0149 21.5564H25.5371L25.9181 20.3756L31.306 16.2881H32.0609L31.1357 19.1587H33.8186L33.0397 21.5564H30.356L29.4161 24.427C29.1253 25.3163 29.3204 25.6977 30.0116 25.6977C30.574 25.6977 31.2732 25.4616 32.1282 24.9535L31.1855 27.8436Z" fill="black"/>
<path d="M37.1193 25.8077C38.1002 25.8077 39.0109 25.0442 39.3731 23.955C39.7178 22.8631 39.2963 22.1014 38.3164 22.1014C37.3362 22.1014 36.4087 22.8631 36.0633 23.955C35.7026 25.0442 36.1394 25.8077 37.1193 25.8077ZM39.3138 18.9949C42.9289 18.9949 43.4586 21.6295 42.7145 23.955C41.8814 26.4979 39.5114 28.9143 36.1376 28.9143C32.5227 28.9143 31.9608 26.2982 32.7219 23.955C33.5194 21.4833 35.8125 18.9949 39.3138 18.9949Z" fill="black"/>
<path d="M88.2711 22.3004C87.5082 21.6295 86.8923 21.338 86.2659 21.338C85.8 21.338 85.3879 21.611 85.262 21.9923C84.9537 22.9547 86.6797 22.7363 87.3885 24.0272C87.6746 24.5362 87.7615 25.2441 87.5082 26.0077C87.1263 27.2069 85.7468 28.9143 83.3041 28.9143C81.9395 28.9143 80.6983 28.5877 79.9797 27.9887L80.8525 25.2626C81.6534 26.2074 82.2976 26.571 83.101 26.571C83.6317 26.571 84.075 26.3166 84.2202 25.8254C84.6188 24.626 81.0517 24.6445 81.9751 21.81C82.3737 20.5931 83.6382 18.9949 86.3041 18.9949C87.509 18.9949 88.2569 19.2124 89.1029 19.7759L88.2711 22.3004Z" fill="black"/>
<path d="M70.6651 19.1649L69.8315 21.7273H69.8633C71.0382 19.9292 72.2779 19.002 73.449 19.002C74.0932 19.002 74.6628 19.238 75.2707 19.7469L72.5596 23.5614C72.2103 22.9979 71.8499 22.7628 71.3837 22.7628C70.565 22.7628 69.6951 23.6715 69.1571 24.7792L67.8689 28.7575H64.5278L67.6447 19.1649H70.6651Z" fill="black"/>
<path d="M78.2591 16.2842L74.5155 21.5639L75.2795 21.5569L74.047 25.3547C73.6128 26.6633 73.572 27.3518 73.8734 27.8977C74.2647 28.5882 75.1696 28.9148 76.1822 28.9148C77.3055 28.9148 78.3476 28.5695 79.449 27.8441L80.3917 24.9541C79.5375 25.4621 78.8386 25.6982 78.2759 25.6982C77.5839 25.6982 77.3889 25.3168 77.6804 24.4275L78.6206 21.5569H81.3043L82.0829 19.1592H79.4002L80.3259 16.2886L78.2591 16.2842Z" fill="black"/>
<path d="M92.274 28.7551L101.489 0.463013H97.5297L88.3206 28.7551H92.274Z" fill="black"/>
<path d="M127.653 1.01873V0.626888H127.915C128.047 0.626888 128.192 0.655065 128.192 0.810921C128.192 1.00552 128.047 1.01873 127.883 1.01873H127.653ZM127.653 1.18163H127.874L128.211 1.72933H128.424L128.063 1.17107C128.251 1.14818 128.393 1.04955 128.393 0.82325C128.393 0.574934 128.245 0.463108 127.945 0.463108H127.46V1.72933H127.653V1.18163ZM127.884 2.1925C128.485 2.1925 129 1.72933 129 1.0927C129 0.463108 128.485 -6.10352e-05 127.884 -6.10352e-05C127.277 -6.10352e-05 126.764 0.463108 126.764 1.0927C126.764 1.72933 127.277 2.1925 127.884 2.1925ZM126.988 1.0927C126.988 0.574937 127.381 0.182213 127.884 0.182213C128.384 0.182213 128.778 0.574937 128.778 1.0927C128.778 1.62191 128.384 2.01023 127.884 2.01023C127.381 2.01023 126.988 1.62191 126.988 1.0927Z" fill="#C8C8C8"/>
</g>
</g>
<defs>
<clipPath id="clip0_102_358">
<rect width="129" height="30" fill="white"/>
</clipPath>
</defs>
</svg>
