<svg width="30" height="30" viewBox="0 0 30 30" fill="none" xmlns="http://www.w3.org/2000/svg">
<path d="M15.9375 18.75V27.1875C15.9375 27.4361 15.8387 27.6746 15.6629 27.8504C15.4871 28.0262 15.2486 28.125 15 28.125C14.7514 28.125 14.5129 28.0262 14.3371 27.8504C14.1613 27.6746 14.0625 27.4361 14.0625 27.1875V18.75C14.0625 18.5014 14.1613 18.2629 14.3371 18.0871C14.5129 17.9113 14.7514 17.8125 15 17.8125C15.2486 17.8125 15.4871 17.9113 15.6629 18.0871C15.8387 18.2629 15.9375 18.5014 15.9375 18.75ZM24.375 11.25H17.2629L22.2258 6.28828C22.4017 6.11237 22.5005 5.87378 22.5005 5.625C22.5005 5.37622 22.4017 5.13763 22.2258 4.96172C22.0499 4.78581 21.8113 4.68698 21.5625 4.68698C21.3137 4.68698 21.0751 4.78581 20.8992 4.96172L15.9375 9.92461V2.8125C15.9375 2.56386 15.8387 2.3254 15.6629 2.14959C15.4871 1.97377 15.2486 1.875 15 1.875C14.7514 1.875 14.5129 1.97377 14.3371 2.14959C14.1613 2.3254 14.0625 2.56386 14.0625 2.8125V9.92461L9.10078 4.96172C8.92487 4.78581 8.68628 4.68698 8.4375 4.68698C8.18872 4.68698 7.95013 4.78581 7.77422 4.96172C7.59831 5.13763 7.49948 5.37622 7.49948 5.625C7.49948 5.87378 7.59831 6.11237 7.77422 6.28828L12.7371 11.25H5.625C5.37636 11.25 5.1379 11.3488 4.96209 11.5246C4.78627 11.7004 4.6875 11.9389 4.6875 12.1875C4.6875 12.4361 4.78627 12.6746 4.96209 12.8504C5.1379 13.0262 5.37636 13.125 5.625 13.125H12.7371L7.77422 18.0867C7.59831 18.2626 7.49948 18.5012 7.49948 18.75C7.49948 18.9988 7.59831 19.2374 7.77422 19.4133C7.95013 19.5892 8.18872 19.688 8.4375 19.688C8.68628 19.688 8.92487 19.5892 9.10078 19.4133L15 13.5129L20.8992 19.4133C20.9863 19.5004 21.0897 19.5695 21.2035 19.6166C21.3173 19.6638 21.4393 19.688 21.5625 19.688C21.6857 19.688 21.8077 19.6638 21.9215 19.6166C22.0353 19.5695 22.1387 19.5004 22.2258 19.4133C22.3129 19.3262 22.382 19.2228 22.4291 19.109C22.4763 18.9952 22.5005 18.8732 22.5005 18.75C22.5005 18.6268 22.4763 18.5048 22.4291 18.391C22.382 18.2772 22.3129 18.1738 22.2258 18.0867L17.2629 13.125H24.375C24.6236 13.125 24.8621 13.0262 25.0379 12.8504C25.2137 12.6746 25.3125 12.4361 25.3125 12.1875C25.3125 11.9389 25.2137 11.7004 25.0379 11.5246C24.8621 11.3488 24.6236 11.25 24.375 11.25Z" fill="#035F5A"/>
</svg>
