<svg width="129" height="15" viewBox="0 0 129 15" fill="none" xmlns="http://www.w3.org/2000/svg">
<g opacity="0.3" clip-path="url(#clip0_102_392)">
<path d="M0 14.8502H7.84849C7.84849 14.8502 8.49179 14.9816 8.98624 14.2281C9.36261 13.6548 8.889 12.8565 8.889 12.8565L4.94888 5.41797C4.67336 5.94132 4.62772 6.46662 4.62772 6.90217C4.62772 7.33929 4.8222 7.96744 5.17876 8.60554C5.53529 9.24362 6.90653 11.7069 6.90653 11.7069C6.90653 11.7069 7.61729 13.0276 7.65138 13.2782C7.71686 13.7548 7.38081 14.0647 7.10233 14.0647H1.98345C1.19166 14.0647 0.900608 13.5122 0.882087 13.0808L0.412766 14.0647L0 14.8502Z" fill="black"/>
<path d="M0 14.8502H7.84849C7.84849 14.8502 8.49179 14.9816 8.98624 14.2281C9.36261 13.6548 8.889 12.8565 8.889 12.8565L4.94888 5.41797C4.67336 5.94132 4.62772 6.46662 4.62772 6.90217C4.62772 7.33929 4.8222 7.96744 5.17876 8.60554C5.53529 9.24362 6.90653 11.7069 6.90653 11.7069C6.90653 11.7069 7.61729 13.0276 7.65138 13.2782C7.71686 13.7548 7.38081 14.0647 7.10233 14.0647H1.98345C1.19166 14.0647 0.900608 13.5122 0.882087 13.0808L0.412766 14.0647L0 14.8502Z" fill="black"/>
<path d="M10.9939 14.8474H9.34453C9.34453 14.8474 9.74275 14.5475 9.89554 14.0616C10.0335 13.6245 9.74969 12.9816 9.74969 12.9816L5.32471 4.64251L6.1026 3.21313L11.11 12.5066C11.11 12.5066 11.714 13.595 11.544 14.0606C11.3736 14.5263 10.9943 14.8465 10.9943 14.8465" fill="black"/>
<path d="M13.1966 14.8475H12.216C12.216 14.8475 12.6697 14.1607 12.464 13.5809C12.1151 12.5983 11.5615 11.6638 11.5615 11.6638L6.50806 2.4155L7.83431 0L15.6689 14.8481H13.195" fill="black"/>
<path d="M24.9709 5.55002C25.0725 5.35645 25.1568 5.35645 25.2415 5.55002L26.8951 9.4279C26.9798 9.6375 26.9968 9.7516 26.6253 9.7516H23.2812C23.0619 9.7516 22.9435 9.68622 23.0619 9.46125L24.9706 5.55035M28.1619 12.3914C28.3309 12.8257 28.6854 13.566 28.6854 13.9201C28.6854 14.5319 27.672 14.3711 27.672 14.7572C27.672 14.9181 27.9426 14.9181 28.0443 14.9181C28.4999 14.9181 28.956 14.854 29.4117 14.854C30.1044 14.854 30.7969 14.9181 31.4888 14.9181C31.608 14.9181 31.7257 14.9181 31.7257 14.7726C31.7257 14.3711 30.7463 14.7246 30.2391 13.9849C29.8508 13.4211 29.6485 12.7456 29.3949 12.1498L25.8825 3.85977C25.8319 3.73095 25.7134 3.26465 25.5279 3.26465C25.3086 3.26465 25.2573 3.52295 24.2605 5.55067L20.2245 13.7592C19.7856 14.6771 18.9915 14.4034 18.9915 14.7412C18.9915 14.838 19.0427 14.9181 19.1436 14.9181C19.5825 14.9181 20.0386 14.854 20.495 14.854C20.968 14.854 21.4406 14.9181 21.9139 14.9181C22.1332 14.9181 22.3696 14.9668 22.3696 14.6768C22.3696 14.2579 21.1704 14.7409 21.1704 13.6141C21.1704 13.4054 21.2382 13.1638 21.2888 13.0516L22.3696 10.7986C22.5386 10.4605 22.8426 10.4605 23.1631 10.4605H26.8786C27.3523 10.4605 27.4529 10.7018 27.6222 11.0729L28.1619 12.3924M36.365 5.11737C36.365 3.71652 37.5972 4.11937 37.5972 3.74922C37.5972 3.5563 37.4963 3.52455 37.2768 3.52455C37.0237 3.52455 36.6179 3.588 35.6555 3.588C34.8284 3.588 34.3041 3.52455 33.9496 3.52455C33.7303 3.52455 33.6119 3.55597 33.6119 3.73255C33.6119 4.05625 35.0306 3.9428 35.0306 4.77925V12.9404C35.0306 13.6968 34.9971 14.1477 34.5582 14.3406C34.0177 14.598 33.848 14.5662 33.8149 14.7588C33.8149 14.8877 33.9158 14.9197 34.068 14.9197C34.743 14.9197 35.453 14.8717 36.1282 14.8556C37.4117 14.8236 38.695 14.9197 39.9791 14.9197C40.7221 14.9197 41.0942 14.9518 41.6326 14.3727C42.0384 13.9538 42.4768 13.3907 42.4768 12.8113C42.4768 12.7792 42.4605 12.6183 42.3413 12.6183C42.1225 12.6183 41.548 14.2759 37.6465 14.2759C36.2283 14.2759 36.3637 13.8903 36.3637 12.9404V5.11737M47.5243 9.38302C47.5243 9.23752 47.4394 9.01225 48.7402 9.01225C52.6242 9.01225 52.6923 11.0736 52.6923 12.1033C52.6923 13.068 52.0842 14.4852 49.838 14.4852C47.4394 14.4852 47.5243 14.1477 47.5243 12.9885V9.38302ZM47.5243 5.2619C47.5243 4.32865 47.4394 4.05527 48.5034 4.05527C50.2096 4.05527 51.7467 5.03725 51.7467 6.77492C51.7467 7.5319 51.6108 8.5139 48.8416 8.5139C47.321 8.5139 47.5246 8.43375 47.5246 7.91872L47.5243 5.2619ZM46.1884 13.0535C46.1884 14.3089 45.5986 14.389 45.4123 14.4371C45.1081 14.5339 44.9064 14.5819 44.9064 14.7431C44.9064 14.888 45.2431 14.92 45.3285 14.92C46.105 14.92 46.8992 14.856 47.6752 14.856C48.25 14.856 49.2635 14.92 49.8713 14.92C53.1647 14.92 53.9751 12.5699 53.9751 11.5082C53.9751 8.83532 51.3223 8.78725 51.3223 8.54592C51.3223 8.43375 52.91 7.90175 52.91 6.2599C52.91 5.0693 52.1665 3.52455 49.1948 3.52455C47.8434 3.52455 47.1677 3.588 46.492 3.588C45.8169 3.588 45.4789 3.52455 45.1411 3.52455C44.9381 3.52455 44.6847 3.5079 44.6847 3.74922C44.6847 4.0697 46.1871 3.91075 46.1871 5.1334V13.0532M58.7992 5.21352C58.7992 4.13475 58.7654 4.1995 60.3866 4.1995C61.0618 4.1995 62.8183 4.10272 63.2584 4.6498C63.5291 5.0206 63.2584 5.79295 63.6637 5.79295C63.7646 5.79295 64.0009 5.66412 64.0009 3.87775C64.0009 3.68417 63.9674 3.52422 63.832 3.52422C63.3092 3.52422 61.7543 3.5877 61.416 3.5877C60.7086 3.5877 59.8296 3.52422 56.6381 3.52422C56.1482 3.52422 56.046 3.5877 56.046 3.7162C56.046 3.91042 56.4188 3.94247 56.5527 3.9742C57.4653 4.10302 57.4653 4.8754 57.4653 5.5997V12.9404C57.4653 13.6968 57.431 14.1477 56.9924 14.3406C56.4519 14.598 56.2829 14.5662 56.2491 14.7588C56.2491 14.8877 56.3507 14.9197 56.5022 14.9197C57.1779 14.9197 57.8874 14.8717 58.5631 14.8556C59.8466 14.8236 61.1299 14.9197 62.4135 14.9197C63.157 14.9197 63.5293 14.9518 64.0706 14.3727C64.4757 13.9538 64.9153 13.3907 64.9153 12.8113C64.9153 12.7792 64.8983 12.6183 64.7793 12.6183C64.5603 12.6183 63.9865 14.2759 60.0845 14.2759C58.6655 14.2759 58.8007 13.8903 58.8007 12.9404V9.97817C58.8007 9.73685 58.7501 9.46315 59.1051 9.46315H61.6052C63.0234 9.46315 62.4486 10.8806 62.9728 10.8806C63.0912 10.8806 63.1586 10.8159 63.1586 10.6704C63.1586 10.2361 63.1243 9.81727 63.1243 9.3984C63.1243 8.88402 63.1586 8.3373 63.1586 7.77292C63.1586 7.64472 63.107 7.4675 62.9728 7.4675C62.567 7.4675 63.0234 8.75582 61.2669 8.75582H59.4424C58.7674 8.75582 58.8012 8.75585 58.8012 8.20877V5.21512M79.2787 5.45387C79.2101 3.53802 80.5617 4.22995 80.5617 3.7143C80.5617 3.61877 80.4941 3.52232 80.3925 3.52232C80.1226 3.52232 79.9699 3.58577 79.5816 3.58577C79.4975 3.58577 78.9572 3.52232 78.7887 3.52232C78.5859 3.50565 78.4505 3.89182 78.3494 4.06842L74.3308 11.7633C74.0596 12.2943 73.8906 12.6324 73.8065 12.6324C73.6889 12.6324 73.62 12.4869 73.435 12.1495L69.4159 3.97227C69.3307 3.79537 69.2974 3.52262 69.0609 3.52262C68.7572 3.52262 68.4535 3.58607 68.1496 3.58607C67.8284 3.58607 67.5245 3.52262 67.22 3.52262C67.0681 3.52262 66.9329 3.55405 66.9329 3.69857C66.9329 4.2463 68.5379 3.3451 68.5379 7.12777C68.5379 8.8334 68.3348 10.5397 68.1326 13.1638C68.0136 14.838 66.9329 14.1778 66.9329 14.7246C66.9329 14.838 66.9839 14.9181 67.1019 14.9181C67.4068 14.9181 67.6927 14.854 68.5717 14.854C69.0781 14.854 69.8382 14.9181 70.0575 14.9181C70.2938 14.9181 70.4804 14.9015 70.4804 14.7412C70.4804 14.1615 68.8751 14.8701 68.9592 12.7295L69.1622 7.0797C69.179 6.91817 69.2298 6.83807 69.2799 6.83807C69.3477 6.83807 69.4321 6.88615 69.4832 7.01497L73.0802 14.1942C73.1308 14.307 73.2484 14.6605 73.418 14.6605C73.5869 14.6605 73.8568 14.0015 73.9409 13.8554L77.4371 7.06432C77.6061 6.72685 77.7575 6.582 77.8759 6.582C77.9776 6.582 78.0625 6.8073 78.0625 7.2095L78.2309 13.4548C78.2477 14.646 77.1837 14.2926 77.1837 14.7742C77.1837 14.8396 77.2175 14.9197 77.3695 14.9197C77.7923 14.9197 78.3321 14.8556 78.8563 14.8556C79.5313 14.8556 80.1231 14.9197 80.4433 14.9197C80.6298 14.9197 80.8484 14.9197 80.8484 14.7588C80.8484 14.1958 79.5991 14.7915 79.5155 13.4394L79.2792 5.4558M88.1062 5.55002C88.207 5.35645 88.2919 5.35645 88.376 5.55002L90.0298 9.4279C90.1149 9.6375 90.1312 9.7516 89.7604 9.7516H86.4168C86.1975 9.7516 86.0783 9.68622 86.1975 9.46125L88.1054 5.55035M91.2958 12.3914C91.4661 12.8257 91.8214 13.566 91.8214 13.9201C91.8214 14.5319 90.8074 14.3711 90.8074 14.7572C90.8074 14.9181 91.0778 14.9181 91.1787 14.9181C91.6351 14.9181 92.0912 14.854 92.5471 14.854C93.2396 14.854 93.9321 14.9181 94.625 14.9181C94.7422 14.9181 94.8601 14.9181 94.8601 14.7726C94.8601 14.3711 93.8815 14.7246 93.3748 13.9849C92.986 13.4211 92.7832 12.7456 92.5301 12.1498L89.0177 3.85977C88.9663 3.73095 88.8479 3.26465 88.6632 3.26465C88.4431 3.26465 88.3925 3.52295 87.3964 5.55067L83.3589 13.7592C82.9201 14.6771 82.1267 14.4034 82.1267 14.7412C82.1267 14.838 82.1773 14.9181 82.2787 14.9181C82.7176 14.9181 83.1737 14.854 83.6301 14.854C84.1028 14.854 84.5752 14.9181 85.0489 14.9181C85.2671 14.9181 85.504 14.9668 85.504 14.6768C85.504 14.2579 84.3053 14.7409 84.3053 13.6141C84.3053 13.4054 84.3721 13.1638 84.4237 13.0516L85.504 10.7986C85.6742 10.4605 85.9769 10.4605 86.2981 10.4605H90.0141C90.4867 10.4605 90.5884 10.7018 90.7566 11.0729L91.2958 12.3924M102.778 9.0914C103.959 8.64112 104.906 7.5617 104.906 6.307C104.906 3.20055 101.173 3.52297 100.904 3.52297C100.026 3.52297 99.0632 3.58642 98.0825 3.58642C97.2218 3.58642 97.3054 3.52297 97.0017 3.52297C96.7987 3.52297 96.664 3.6191 96.664 3.71492C96.664 4.26327 98.1171 3.60275 98.1171 5.1478V13.341C98.1171 14.565 96.8841 14.339 96.8841 14.7412C96.8841 14.838 96.9509 14.9181 97.0523 14.9181C97.6937 14.9181 98.3369 14.854 98.9793 14.854C100.38 14.854 100.768 14.9181 100.921 14.9181C101.056 14.9181 101.208 14.9502 101.208 14.7899C101.208 14.2422 99.4512 14.7412 99.4512 13.3577V9.96055C99.4512 9.79967 99.3498 9.51025 99.8913 9.51025C101.783 9.51025 101.53 9.46155 102.138 10.3628L104.012 13.1798C104.653 14.097 105.312 14.9181 106.545 14.9181C106.697 14.9181 107.642 14.9181 107.642 14.7246C107.642 14.339 106.816 14.9348 105.599 13.1638L102.778 9.0914M99.4512 4.64882C99.4512 4.021 99.8057 4.05367 100.414 4.05367C102.067 4.05367 103.639 4.71387 103.639 6.67782C103.639 8.67285 102.018 8.9632 101.292 8.9632C100.498 8.9632 99.4512 9.04267 99.4512 8.7379V4.64882ZM112.118 5.11737C112.118 3.71652 113.35 4.11937 113.35 3.74922C113.35 3.5563 113.249 3.52455 113.029 3.52455C112.776 3.52455 112.372 3.588 111.408 3.588C110.581 3.588 110.057 3.52455 109.702 3.52455C109.482 3.52455 109.365 3.55597 109.365 3.73255C109.365 4.05625 110.783 3.9428 110.783 4.77925V12.9404C110.783 13.6968 110.75 14.1477 110.311 14.3406C109.771 14.598 109.602 14.5662 109.568 14.7588C109.568 14.8877 109.668 14.9197 109.821 14.9197C110.496 14.9197 111.204 14.8717 111.881 14.8556C113.165 14.8236 114.449 14.9197 115.732 14.9197C116.475 14.9197 116.848 14.9518 117.389 14.3727C117.794 13.9538 118.233 13.3907 118.233 12.8113C118.233 12.7792 118.216 12.6183 118.098 12.6183C117.878 12.6183 117.304 14.2759 113.403 14.2759C111.985 14.2759 112.12 13.8903 112.12 12.9404V5.11737M122.887 5.21352C122.887 4.13475 122.853 4.1995 124.475 4.1995C125.15 4.1995 126.906 4.10272 127.346 4.6498C127.615 5.0206 127.346 5.79295 127.75 5.79295C127.852 5.79295 128.088 5.66412 128.088 3.87775C128.088 3.68417 128.055 3.52422 127.919 3.52422C127.396 3.52422 125.842 3.5877 125.504 3.5877C124.795 3.5877 123.917 3.52422 120.725 3.52422C120.235 3.52422 120.133 3.5877 120.133 3.7162C120.133 3.91042 120.506 3.94247 120.64 3.9742C121.553 4.10302 121.553 4.8754 121.553 5.5997V12.9404C121.553 13.6968 121.519 14.1477 121.079 14.3406C120.54 14.598 120.37 14.5662 120.336 14.7588C120.336 14.8877 120.437 14.9197 120.59 14.9197C121.265 14.9197 121.975 14.8717 122.65 14.8556C123.934 14.8236 125.219 14.9197 126.501 14.9197C127.244 14.9197 127.615 14.9518 128.154 14.3727C128.56 13.9538 129 13.3907 129 12.8113C129 12.7792 128.982 12.6183 128.863 12.6183C128.645 12.6183 128.071 14.2759 124.169 14.2759C122.75 14.2759 122.886 13.8903 122.886 12.9404V9.97817C122.886 9.73685 122.834 9.46315 123.189 9.46315H125.689C127.108 9.46315 126.533 10.8806 127.057 10.8806C127.175 10.8806 127.243 10.8159 127.243 10.6704C127.243 10.2361 127.209 9.81727 127.209 9.3984C127.209 8.88402 127.243 8.3373 127.243 7.77292C127.243 7.64472 127.192 7.4675 127.057 7.4675C126.65 7.4675 127.108 8.75582 125.351 8.75582H123.527C122.852 8.75582 122.886 8.75585 122.886 8.20877V5.21512" fill="#131312"/>
</g>
<defs>
<clipPath id="clip0_102_392">
<rect width="129" height="15" fill="white"/>
</clipPath>
</defs>
</svg>
