<svg width="22" height="20" viewBox="0 0 22 20" fill="none" xmlns="http://www.w3.org/2000/svg">
<path d="M16.6041 6.91411H16.6266C17.659 6.91355 18.6617 7.26005 19.4735 7.89796C20.2853 8.53587 20.8591 9.42815 21.1027 10.4314C21.3463 11.4347 21.2456 12.4908 20.8168 13.43C20.3879 14.3691 19.6558 15.1369 18.7381 15.6099M16.6041 6.91411C16.6184 6.74565 16.6259 6.57514 16.6266 6.40259C16.6288 4.9511 16.07 3.55489 15.067 2.50571C14.0639 1.45654 12.6943 0.835576 11.2441 0.772579C9.79399 0.709581 8.37562 1.20942 7.28537 2.16766C6.19512 3.1259 5.51736 4.46838 5.39371 5.91461M16.6041 6.91411C16.5011 8.0409 16.0608 9.11047 15.3406 9.9832M5.39371 5.91461C4.28294 6.02122 3.23751 6.48814 2.41678 7.24417C1.59606 8.0002 1.04507 9.00388 0.847825 10.1022C0.650578 11.2005 0.817891 12.3332 1.32426 13.3275C1.83062 14.3219 2.64826 15.1234 3.65252 15.6099M5.39371 5.91461C5.55535 5.89892 5.71904 5.89108 5.88477 5.89108C7.0367 5.89108 8.09962 6.27165 8.95385 6.91411M10.9999 12.0293L11.2639 12.7423C11.6096 13.6774 11.7825 14.1449 12.1232 14.4855C12.4649 14.8272 12.9324 15.0001 13.8675 15.3459L14.5805 15.6099L13.8675 15.8738C12.9324 16.2196 12.4649 16.3925 12.1242 16.7331C11.7825 17.0748 11.6096 17.5424 11.2639 18.4774L10.9999 19.1905L10.736 18.4774C10.3902 17.5424 10.2173 17.0748 9.87663 16.7342C9.53493 16.3925 9.06741 16.2196 8.13236 15.8738L7.41931 15.6099L8.13236 15.3459C9.06741 15.0001 9.53493 14.8272 9.8756 14.4866C10.2173 14.1449 10.3902 13.6774 10.736 12.7423L10.9999 12.0293Z" stroke="#ACD893" stroke-width="1.5" stroke-linecap="round" stroke-linejoin="round"/>
</svg>
