<svg width="14" height="14" viewBox="0 0 14 14" fill="none" xmlns="http://www.w3.org/2000/svg">
<path d="M7.71961 0C8.50707 0.0020999 8.90675 0.00629969 9.25183 0.0160992L9.38763 0.0209989C9.54442 0.0265987 9.69911 0.0335983 9.886 0.0419979C10.6308 0.0769961 11.1389 0.19459 11.5848 0.367482C12.0468 0.545273 12.436 0.786061 12.8252 1.17454C13.1812 1.52434 13.4567 1.94763 13.6322 2.41488C13.8051 2.86076 13.9227 3.36893 13.9577 4.11439C13.9661 4.30059 13.9731 4.45528 13.9787 4.61277L13.9829 4.74856C13.9934 5.09295 13.9976 5.49263 13.999 6.28009L13.9997 6.80226V7.71921C14.0014 8.22977 13.996 8.74033 13.9836 9.25074L13.9794 9.38653C13.9738 9.54402 13.9668 9.69872 13.9584 9.88491C13.9234 10.6304 13.8044 11.1378 13.6322 11.5844C13.4567 12.0517 13.1812 12.475 12.8252 12.8248C12.4754 13.1808 12.0521 13.4563 11.5848 13.6318C11.1389 13.8047 10.6308 13.9223 9.886 13.9573L9.38763 13.9783L9.25183 13.9825C8.90675 13.9923 8.50707 13.9972 7.71961 13.9986L7.19744 13.9993H6.28118C5.77039 14.0011 5.2596 13.9957 4.74896 13.9832L4.61317 13.979C4.447 13.9727 4.28088 13.9655 4.11479 13.9573C3.37003 13.9223 2.86185 13.8047 2.41528 13.6318C1.94828 13.4562 1.52523 13.1807 1.17564 12.8248C0.819319 12.475 0.543647 12.0517 0.36788 11.5844C0.194988 11.1385 0.0773942 10.6304 0.042396 9.88491L0.0213971 9.38653L0.0178973 9.25074C0.0049942 8.74034 -0.000839464 8.22978 0.000398138 7.71921V6.28009C-0.00153929 5.76953 0.00359433 5.25898 0.0157974 4.74856L0.0206972 4.61277C0.0262969 4.45528 0.0332965 4.30059 0.0416961 4.11439C0.0766943 3.36893 0.194288 2.86146 0.36718 2.41488C0.543357 1.94744 0.819513 1.52413 1.17634 1.17454C1.52573 0.818643 1.94853 0.543224 2.41528 0.367482C2.86185 0.19459 3.36933 0.0769961 4.11479 0.0419979C4.30098 0.0335983 4.45638 0.0265987 4.61317 0.0209989L4.74896 0.0167991C5.25937 0.00436268 5.76993 -0.00100424 6.28048 0.000699914L7.71961 0ZM7.00005 3.49983C6.07184 3.49983 5.18164 3.86856 4.5253 4.5249C3.86895 5.18124 3.50022 6.07144 3.50022 6.99965C3.50022 7.92786 3.86895 8.81806 4.5253 9.4744C5.18164 10.1307 6.07184 10.4995 7.00005 10.4995C7.92826 10.4995 8.81845 10.1307 9.4748 9.4744C10.1311 8.81806 10.4999 7.92786 10.4999 6.99965C10.4999 6.07144 10.1311 5.18124 9.4748 4.5249C8.81845 3.86856 7.92826 3.49983 7.00005 3.49983ZM7.00005 4.89976C7.27581 4.89971 7.54888 4.95398 7.80367 5.05947C8.05846 5.16495 8.28997 5.31959 8.485 5.51455C8.68003 5.70951 8.83474 5.94098 8.94031 6.19573C9.04589 6.45049 9.10025 6.72354 9.10029 6.9993C9.10034 7.27506 9.04607 7.54813 8.94058 7.80292C8.83509 8.05771 8.68046 8.28923 8.4855 8.48425C8.29053 8.67928 8.05907 8.83399 7.80432 8.93957C7.54956 9.04514 7.27651 9.0995 7.00075 9.09955C6.44382 9.09955 5.9097 8.87831 5.5159 8.4845C5.12209 8.09069 4.90085 7.55658 4.90085 6.99965C4.90085 6.44272 5.12209 5.90861 5.5159 5.5148C5.9097 5.12099 6.44382 4.89976 7.00075 4.89976M10.6756 2.44988C10.4435 2.44988 10.221 2.54206 10.0569 2.70615C9.89279 2.87023 9.80061 3.09278 9.80061 3.32483C9.80061 3.55689 9.89279 3.77944 10.0569 3.94352C10.221 4.10761 10.4435 4.19979 10.6756 4.19979C10.9076 4.19979 11.1302 4.10761 11.2943 3.94352C11.4583 3.77944 11.5505 3.55689 11.5505 3.32483C11.5505 3.09278 11.4583 2.87023 11.2943 2.70615C11.1302 2.54206 10.9076 2.44988 10.6756 2.44988Z" fill="#2E574D"/>
</svg>
