<svg width="129" height="36" viewBox="0 0 129 36" fill="none" xmlns="http://www.w3.org/2000/svg">
<g opacity="0.4">
<mask id="mask0_102_343" style="mask-type:luminance" maskUnits="userSpaceOnUse" x="1" y="1" width="127" height="34">
<path d="M1.01562 34.8318H127.984V1.0127H1.01562V34.8318Z" fill="white"/>
</mask>
<g mask="url(#mask0_102_343)">
<path d="M3.25598 25.554C3.25598 25.554 4.15101 27.2045 6.01274 28.9332L5.66261 26.3903L3.25598 25.554Z" fill="black"/>
<path d="M21.2424 34.803C31.8702 34.803 41.4647 27.4096 41.4647 17.9153C41.4647 8.42075 31.8702 1.02747 21.2424 1.02747C10.6144 1.02747 1.02142 8.42075 1.02142 17.9153C1.02142 27.4096 10.6144 34.803 21.2424 34.803Z" fill="black"/>
<path d="M88.7946 28.4763H85.1867L85.1351 16.951C85.1374 15.2996 83.4011 15.2626 83.4011 15.2626H81.8172C81.8172 15.2626 81.6028 15.2996 81.3513 15.3358C79.0801 15.8137 78.3597 17.5752 78.3414 19.5574L78.3732 28.4763H74.7274L74.7207 16.9876C74.7168 15.2996 72.9425 15.2626 72.9425 15.2626H71.3592C71.3592 15.2626 71.1443 15.2996 70.8935 15.3358C68.6197 15.8137 67.901 17.5752 67.92 19.5574L67.9151 28.4763H64.2688L64.2626 18.8594L64.273 11.6293H67.9175L67.9255 13.1342C68.9869 11.8497 70.562 11.5928 71.336 11.5928H72.661C74.2818 11.5928 75.6977 12.1063 77.1908 13.4646C78.7246 12.1431 80.0633 11.5928 81.794 11.5928H83.1191C86.4339 11.5928 88.7928 13.6846 88.8142 17.1345L88.7946 28.4763Z" fill="#231F20"/>
<path d="M116.999 11.5928H111.476L111.477 8.20995L107.832 6.01447L107.835 28.4763H111.481L111.457 15.2261H117.09C117.459 15.2261 117.84 15.2996 118.166 15.4833C118.691 15.7403 119.083 16.2903 119.068 17.2448L119.066 28.4763H122.711L122.688 17.0979C122.703 13.6481 120.316 11.5928 116.999 11.5928Z" fill="#231F20"/>
<path d="M102.714 8.04178L99.2846 5.97754H99.1417L99.1123 15.2263H99.12L99.1244 22.5302C99.1347 25.5041 100.452 27.7421 103.14 28.3662C103.675 28.4765 104.043 28.4765 104.043 28.4765H104.816L104.799 24.8431H104.284C102.7 24.8431 102.736 22.9703 102.736 22.9703L102.73 15.2263H104.828L104.811 11.5931H102.713L102.714 8.04178Z" fill="#231F20"/>
<path d="M92.3033 5.97754H92.1397L92.1521 9.79434H95.7248L95.7354 8.04438L92.3033 5.97754ZM92.143 28.4765H95.7525L95.7481 11.5931H92.1392L92.143 28.4765Z" fill="#231F20"/>
<path d="M46.198 22.2709C47.8216 23.992 50.101 25.1971 52.6217 25.1971C55.6602 25.1631 57.8013 24.0267 57.8013 21.9617C57.8013 17.1429 43.8161 21.7898 43.8161 12.9778C43.8161 9.12292 47.8564 6.4726 52.794 6.4726C56.3867 6.4726 59.2863 7.60865 61.4267 9.77688L58.4579 12.4272C56.4891 10.5005 54.6934 9.84613 52.5874 9.84613C49.2721 9.84613 48.029 11.4643 48.029 12.7725C48.029 17.624 62.0149 12.7725 62.0149 21.7555C62.0149 26.2638 57.4223 28.9826 52.4491 28.9826C49.4104 28.9826 45.8874 27.8473 43.1598 24.9901L46.198 22.2709Z" fill="#231F20"/>
<path d="M126.186 26.4387C126.398 26.4387 126.543 26.4024 126.543 26.1656C126.543 25.9542 126.315 25.9282 126.139 25.9282H125.824V26.4387H126.186ZM125.379 25.5882H126.16C126.688 25.5882 126.988 25.7428 126.988 26.2067C126.988 26.5829 126.76 26.7323 126.44 26.7583L126.988 27.6552H126.533L126.036 26.7789H125.824V27.6552H125.379V25.5882ZM126.129 28.0777C126.869 28.0777 127.458 27.4901 127.458 26.6295C127.458 25.7737 126.869 25.181 126.129 25.181C125.379 25.181 124.8 25.7737 124.8 26.6295C124.8 27.4901 125.379 28.0777 126.129 28.0777ZM126.129 24.7686C127.158 24.7686 127.996 25.6036 127.996 26.6295C127.996 27.6552 127.158 28.4902 126.129 28.4902C125.1 28.4902 124.262 27.6552 124.262 26.6295C124.262 25.6036 125.1 24.7686 126.129 24.7686Z" fill="#231F20"/>
<path d="M31.1476 24.5358C34.7407 24.5358 37.9851 21.5243 37.9851 17.6572C37.9851 13.7897 34.7407 10.7782 31.1476 10.7782C27.5539 10.7782 24.3098 13.7897 24.3098 17.6572C24.3098 21.5243 27.5539 24.5358 31.1476 24.5358ZM31.1476 7.29218C37.1267 7.29218 41.8649 11.8245 41.8649 17.6572C41.8649 23.4901 37.1267 28.0224 31.1476 28.0224C25.1682 28.0224 20.4294 23.4901 20.4294 17.6572C20.4294 11.8245 25.1682 7.29218 31.1476 7.29218Z" fill="black"/>
<path d="M24.3178 17.6526C24.3178 21.5178 27.5606 24.5283 31.153 24.5283C34.7451 24.5283 37.9882 21.5178 37.9882 17.6526C37.9882 13.7867 34.7451 10.7767 31.153 10.7767C27.5606 10.7767 24.3178 13.7867 24.3178 17.6526ZM31.153 28.0147C25.1761 28.0147 20.4391 23.483 20.4391 17.6526C20.4391 11.8219 25.1761 7.29112 31.153 7.29112C35.0036 7.29112 38.337 9.17322 40.223 12.0701C37.2707 5.54476 29.5807 1.0127 21.2574 1.0127C10.6184 1.0127 1.01562 8.41537 1.01562 17.9223C1.01562 20.723 1.85426 23.3383 3.30176 25.6387L11.1674 7.70013L13.4091 7.70334L21.8656 27.6022H17.8915L16.3652 23.863H7.9085L5.96827 28.8941C9.7701 32.5486 15.3528 34.8318 21.2574 34.8318C30.2668 34.8318 38.5318 29.5221 40.853 22.1221C39.1507 25.6419 35.4768 28.0147 31.153 28.0147ZM9.24427 20.5678H15.0619L12.1689 13.4381L9.24427 20.5678Z" fill="#ABABAB"/>
</g>
</g>
</svg>
