<svg width="41" height="41" viewBox="0 0 41 41" fill="none" xmlns="http://www.w3.org/2000/svg">
<rect width="41" height="41" rx="8" fill="#1F514C"/>
<path d="M18.55 10.876L12.595 14.182C12.1303 14.4411 11.7433 14.8199 11.4745 15.279C11.2056 15.7382 11.0646 16.2609 11.066 16.793V23.207C11.0647 23.7389 11.2059 24.2615 11.4747 24.7204C11.7436 25.1794 12.1304 25.558 12.595 25.817L18.552 29.124C18.9951 29.3706 19.4939 29.5 20.001 29.5C20.5081 29.5 21.0069 29.3706 21.45 29.124L27.407 25.818C27.8718 25.5589 28.2587 25.1801 28.5275 24.721C28.7964 24.2618 28.9375 23.7391 28.936 23.207V16.793C28.9373 16.2611 28.7962 15.7385 28.5273 15.2796C28.2584 14.8206 27.8716 14.442 27.407 14.183L21.45 10.876C21.0069 10.6294 20.5081 10.5 20.001 10.5C19.4939 10.5 18.9951 10.6294 18.552 10.876H18.55Z" stroke="#ACD893" stroke-width="1.5"/>
<path d="M28.33 14.996L20 20M20 20L11.67 14.996M20 20V29.49" stroke="#ACD893" stroke-width="1.5"/>
</svg>
