<svg width="129" height="24" viewBox="0 0 129 24" fill="none" xmlns="http://www.w3.org/2000/svg">
<g opacity="0.4" clip-path="url(#clip0_102_390)">
<path d="M127.993 22.6726C127.993 21.2924 127.208 20.7941 125.919 20.7941H116.125C111.527 20.7941 109.901 17.8803 109.695 15.8675H123.283C127.246 15.8675 128.423 12.9346 128.423 11.056C128.423 9.04319 127.152 6.24446 123.283 6.24446H115.938C109.246 6.24446 107.06 10.9026 107.06 14.6982C107.06 18.8579 109.564 23.1519 115.919 23.1519H127.993V22.6726ZM116.144 8.60231H122.947C125.302 8.60231 125.863 10.0975 125.863 11.0752C125.863 11.9378 125.339 13.548 122.947 13.548H109.695C109.863 11.8419 111.228 8.60231 116.144 8.60231ZM88.4245 22.0784C87.7331 23.056 87.247 23.4011 86.6301 23.4011C85.7705 23.4011 85.4526 22.9219 84.836 22.0784C83.3595 20.0081 73.5279 6.24446 73.5279 6.24446H75.0418C76.6868 6.24446 77.1538 6.83872 77.8269 7.81636C78.1259 8.23807 86.6678 20.6023 86.6678 20.6023C86.6678 20.6023 95.2094 8.25724 95.5458 7.75884C96.1813 6.83872 96.6674 6.24446 98.3121 6.24446H99.6393C99.6393 6.24446 89.6397 20.3915 88.4245 22.0784ZM23.978 23.1519C22.95 23.1519 22.2959 22.6343 22.109 21.5033L21.7726 19.663C21.2118 20.7173 19.1558 23.1519 14.6886 23.1519H9.54859C2.55815 23.1519 0.576904 18.2828 0.576904 14.6982C0.576904 10.6534 2.95068 6.24446 9.54859 6.24446H14.6886C19.6978 6.24446 22.4641 9.23489 23.137 12.8771C23.6976 15.925 25.006 23.1519 25.006 23.1519H23.978ZM14.1092 8.60231H9.7168C4.78237 8.60231 3.10019 11.8228 3.10019 14.6982C3.10019 17.5736 4.78237 20.7941 9.7168 20.7941H14.1092C19.2679 20.7941 20.7632 17.4393 20.7632 14.6982C20.7632 12.2445 19.4174 8.60231 14.1092 8.60231ZM102.985 4.30835C103.714 4.30835 104.275 3.84829 104.275 2.9665V2.41058C104.275 1.52878 103.695 1.06872 102.985 1.06872C102.275 1.06872 101.695 1.50961 101.695 2.41058V2.9665C101.677 3.84829 102.256 4.30835 102.985 4.30835ZM101.714 6.24446H102.312C103.49 6.24446 104.237 6.78119 104.237 8.42976V23.1519H103.602C102.312 23.1519 101.695 22.4425 101.695 21.0241C101.714 20.8132 101.714 6.24446 101.714 6.24446ZM28.875 8.44894C29.9591 7.39462 31.9032 6.24446 34.9682 6.24446H40.1084C47.0989 6.24446 49.08 11.1135 49.08 14.6982C49.08 18.7429 46.7062 23.1519 40.1084 23.1519H34.9682C29.9591 23.1519 26.3518 19.8356 26.3518 14.6982V0.570312H27.1369C28.2584 0.570312 28.875 1.16457 28.875 2.23805V8.44894ZM35.5291 20.7941H39.9216C44.8561 20.7941 46.5382 17.5736 46.5382 14.6982C46.5382 11.8228 44.8561 8.60231 39.9216 8.60231H35.5291C30.3704 8.60231 28.875 11.9569 28.875 14.6982C28.875 17.1518 30.2022 20.7941 35.5291 20.7941ZM54.1454 8.44894C55.2295 7.39462 57.1732 6.24446 60.2385 6.24446H65.3787C72.3692 6.24446 74.3504 11.1135 74.3504 14.6982C74.3504 18.7429 71.9765 23.1519 65.3787 23.1519H60.2385C55.2295 23.1519 51.6221 19.8356 51.6221 14.6982V0.570312H52.407C53.5285 0.570312 54.1454 1.16457 54.1454 2.23805V8.44894ZM60.7992 20.7941H65.1916C70.1261 20.7941 71.8083 17.5736 71.8083 14.6982C71.8083 11.8228 70.1261 8.60231 65.1916 8.60231H60.7992C55.6407 8.60231 54.1454 11.9569 54.1454 14.6982C54.1454 17.1518 55.4911 20.7941 60.7992 20.7941Z" fill="black"/>
</g>
<defs>
<clipPath id="clip0_102_390">
<rect width="129" height="24" fill="white"/>
</clipPath>
</defs>
</svg>
